# Blender v3.0.0 OBJ File: 'axis.blend'
# www.blender.org
o Cube_Cube.001
v 0.625874 0.073891 -0.625874
v 0.625874 1.325640 -0.625874
v 0.625874 0.073891 0.625874
v 0.625874 1.325640 0.625874
v -0.625875 0.073891 -0.625874
v -0.625875 1.325640 -0.625874
v -0.625875 0.073891 0.625874
v -0.625875 1.325640 0.625874
v 0.264882 4.200150 -0.264882
v 0.264882 4.200150 0.264882
v -0.264882 4.200150 0.264882
v -0.264882 4.200150 -0.264882
v 0.576192 4.282078 -0.576192
v 0.576192 4.282078 0.576192
v -0.576192 4.282078 0.576192
v -0.576192 4.282078 -0.576192
v 0.094659 5.338466 -0.094659
v 0.094659 5.338466 0.094659
v -0.094659 5.338466 0.094659
v -0.094659 5.338466 -0.094659
v 3.073232 0.212210 0.487555
v 3.073232 0.212210 -0.487555
v 3.073232 1.187321 -0.487555
v 3.073232 1.187321 0.487555
v 0.373866 1.073632 2.657871
v 0.373866 0.325899 2.657871
v -0.373866 0.325899 2.657871
v -0.373866 1.073632 2.657871
v 0.671041 1.370806 2.716985
v 0.671041 0.028724 2.716985
v -0.671041 0.028724 2.716985
v -0.671041 1.370806 2.716985
v 0.139811 0.839576 3.766262
v 0.139811 0.559955 3.766262
v -0.139811 0.559955 3.766262
v -0.139811 0.839576 3.766262
v 3.226216 0.047266 0.652500
v 3.226216 0.047266 -0.652500
v 3.226216 1.352265 -0.652500
v 3.226216 1.352265 0.652500
v 4.522077 0.580532 0.119234
v 4.522077 0.580532 -0.119234
v 4.522077 0.818999 -0.119234
v 4.522077 0.818999 0.119234
vt 0.259785 0.795534
vt 0.374296 0.539900
vt 0.389599 0.795534
vt 0.563351 0.542808
vt 0.775382 0.578768
vt 0.563351 0.615232
vt 0.432735 0.434110
vt 0.563351 0.434110
vt 0.302374 0.539900
vt 0.431778 0.408093
vt 0.432735 0.538543
vt 0.645369 0.000000
vt 0.775081 0.113063
vt 0.644470 0.112015
vt 0.470404 0.813306
vt 0.432735 0.542808
vt 0.923552 0.312467
vt 0.891296 0.400230
vt 0.891296 0.279983
vt 0.130090 0.842176
vt 0.222838 0.539900
vt 0.259785 0.842176
vt 0.000000 0.448331
vt 0.301417 0.409450
vt 0.000000 0.842172
vt 0.092204 0.539900
vt 0.130090 0.842172
vt 0.661012 0.933404
vt 0.547898 0.861331
vt 0.661012 0.813306
vt 0.970960 0.312467
vt 0.994423 0.400230
vt 0.970960 0.367746
vt 0.994423 0.279983
vt 0.923552 0.367746
vt 0.329786 0.926081
vt 0.310031 0.915128
vt 0.329786 0.915128
vt 0.890512 0.920291
vt 0.775382 0.853950
vt 0.890512 0.800528
vt 0.380032 0.795534
vt 0.259785 0.795534
vt 0.547899 0.932706
vt 0.432735 0.858745
vt 0.547899 0.813306
vt 0.894343 0.777353
vt 0.775382 0.800528
vt 0.792593 0.777353
vt 0.414609 0.152483
vt 0.908776 0.647764
vt 0.778160 0.647764
vt 0.657205 0.323714
vt 0.884427 0.030759
vt 0.775981 0.000429
vt 0.915756 0.000000
vt 0.775382 0.647764
vt 0.878962 0.434110
vt 0.905188 0.647764
vt 0.775382 0.535505
vt 0.433272 0.007326
vt 0.757260 0.952784
vt 0.690009 0.877716
vt 0.757260 0.813306
vt 0.806551 0.108925
vt 0.806551 0.030998
vt 0.915756 0.139868
vt 0.884427 0.108685
vt 0.775981 0.140297
vt 0.661012 0.906486
vt 0.661012 0.877426
vt 0.891296 0.419156
vt 0.775980 0.339739
vt 0.891296 0.279983
vt 1.000000 0.917070
vt 0.890512 0.815922
vt 1.000000 0.800528
vt 0.000000 0.842173
vt 0.109488 0.943243
vt 0.000000 0.962275
vt 0.775980 0.347210
vt 0.694754 0.433911
vt 0.639813 0.346117
vt 0.758950 0.324531
vt 0.894343 0.692678
vt 0.911554 0.800528
vt 0.313058 0.153540
vt 0.432735 0.137209
vt 0.200525 0.937318
vt 0.225252 0.912280
vt 0.225252 0.936988
vt 0.775980 0.279983
vt 0.860796 0.140297
vt 0.911316 0.279983
vt 0.296828 0.138624
vt 0.372764 0.000000
vt 0.130090 0.977389
vt 0.200525 0.912610
vt 0.273172 0.539900
vt 0.775980 0.001048
vt 0.525683 0.813306
vt 0.167948 0.539900
vt 0.000405 0.503540
vt 0.037148 0.539900
vt 0.547898 0.881061
vt 0.310031 0.926081
vt 0.775382 0.873626
vt 0.432735 0.878361
vt 0.801423 0.434110
vt 0.775382 0.470575
vt 0.432735 0.074239
vt 0.690009 0.906776
vt 0.775980 0.368735
vt 0.890512 0.840203
vt 0.109488 0.918220
vt 0.719637 0.434110
vt 0.911554 0.687207
vt 0.836065 0.140297
vt 0.347929 0.000258
vt 0.130090 0.842176
vn 0.0564 0.0000 0.9984
vn 0.0000 0.9924 0.1231
vn -1.0000 0.0000 0.0000
vn 0.0000 0.0000 -1.0000
vn 0.0000 -1.0000 0.0000
vn -0.9922 0.1246 0.0000
vn -0.2545 -0.9671 0.0000
vn 0.9922 0.1246 0.0000
vn 0.0000 0.1246 -0.9922
vn 0.0000 0.1246 0.9922
vn 0.0000 0.4148 -0.9099
vn 0.2545 -0.9671 0.0000
vn 0.0000 -0.9671 -0.2545
vn 0.0000 -0.9671 0.2545
vn 0.0000 1.0000 0.0000
vn 0.0000 0.4148 0.9099
vn -0.9099 0.4148 0.0000
vn 0.9099 0.4148 0.0000
vn -0.7332 0.6800 0.0000
vn 0.0564 0.0000 -0.9984
vn 0.0564 0.9984 0.0000
vn 0.0564 -0.9984 0.0000
vn -0.1951 0.0000 -0.9808
vn 0.9924 0.0000 0.1231
vn -0.9924 0.0000 0.1231
vn 0.0000 -0.9924 0.1231
vn 0.0000 0.8922 0.4517
vn 0.0000 -0.1951 -0.9808
vn 0.0000 0.1951 -0.9808
vn 0.1951 0.0000 -0.9808
vn 0.0000 0.0000 1.0000
vn 0.8922 0.0000 0.4517
vn -0.8922 0.0000 0.4517
vn 0.0000 -0.8922 0.4517
vn 0.3806 -0.9248 0.0000
vn -0.7332 -0.6800 0.0000
vn -0.7332 0.0000 0.6800
vn -0.7332 0.0000 -0.6800
vn 1.0000 0.0000 0.0000
vn 0.3806 0.0000 0.9248
vn 0.3806 0.0000 -0.9248
vn 0.3806 0.9248 0.0000
s off
f 3/1/1 24/2/1 4/3/1
f 8/4/2 25/5/2 4/6/2
f 8/4/3 5/7/3 7/8/3
f 6/9/4 1/10/4 5/11/4
f 7/12/5 1/13/5 3/14/5
f 8/4/6 12/15/6 6/16/6
f 12/17/7 15/18/7 16/19/7
f 2/20/8 10/21/8 4/22/8
f 6/9/9 9/23/9 2/24/9
f 4/25/10 11/26/10 8/27/10
f 16/28/11 17/29/11 13/30/11
f 9/31/12 14/32/12 10/33/12
f 12/17/13 13/34/13 9/31/13
f 10/33/14 15/18/14 11/35/14
f 18/36/15 20/37/15 19/38/15
f 14/39/16 19/40/16 15/41/16
f 15/42/17 20/37/17 16/43/17
f 13/44/18 18/45/18 14/46/18
f 24/47/19 39/48/19 23/49/19
f 2/24/20 22/50/20 1/10/20
f 4/51/21 23/49/21 2/52/21
f 1/13/22 21/53/22 3/14/22
f 28/54/23 31/55/23 32/56/23
f 4/57/24 26/58/24 3/59/24
f 7/8/25 28/60/25 8/4/25
f 3/14/26 27/61/26 7/12/26
f 32/62/27 33/63/27 29/64/27
f 26/65/28 31/55/28 27/66/28
f 28/54/29 29/67/29 25/68/29
f 26/65/30 29/67/30 30/69/30
f 33/63/31 35/70/31 34/71/31
f 29/72/32 34/73/32 30/74/32
f 31/75/33 36/76/33 32/77/33
f 30/78/34 35/79/34 31/80/34
f 38/81/35 41/82/35 37/83/35
f 22/84/36 37/83/36 21/53/36
f 21/85/37 40/86/37 24/47/37
f 23/87/38 38/88/38 22/50/38
f 43/89/39 41/90/39 42/91/39
f 37/92/40 44/93/40 40/94/40
f 39/95/41 42/96/41 38/88/41
f 39/97/42 44/98/42 43/89/42
f 3/1/1 21/99/1 24/2/1
f 8/4/2 28/60/2 25/5/2
f 8/4/3 6/16/3 5/7/3
f 6/9/4 2/24/4 1/10/4
f 7/12/5 5/100/5 1/13/5
f 8/4/6 11/101/6 12/15/6
f 12/17/7 11/35/7 15/18/7
f 2/20/8 9/102/8 10/21/8
f 6/9/9 12/103/9 9/23/9
f 4/25/10 10/104/10 11/26/10
f 16/28/11 20/105/11 17/29/11
f 9/31/12 13/34/12 14/32/12
f 12/17/13 16/19/13 13/34/13
f 10/33/14 14/32/14 15/18/14
f 18/36/15 17/106/15 20/37/15
f 14/39/16 18/107/16 19/40/16
f 15/42/17 19/38/17 20/37/17
f 13/44/18 17/108/18 18/45/18
f 24/47/19 40/86/19 39/48/19
f 2/24/20 23/87/20 22/50/20
f 4/51/21 24/47/21 23/49/21
f 1/13/22 22/84/22 21/53/22
f 28/54/23 27/66/23 31/55/23
f 4/57/24 25/109/24 26/58/24
f 7/8/25 27/110/25 28/60/25
f 3/14/26 26/111/26 27/61/26
f 32/62/27 36/112/27 33/63/27
f 26/65/28 30/69/28 31/55/28
f 28/54/29 32/56/29 29/67/29
f 26/65/30 25/68/30 29/67/30
f 33/63/31 36/112/31 35/70/31
f 29/72/32 33/113/32 34/73/32
f 31/75/33 35/114/33 36/76/33
f 30/78/34 34/115/34 35/79/34
f 38/81/35 42/116/35 41/82/35
f 22/84/36 38/81/36 37/83/36
f 21/85/37 37/117/37 40/86/37
f 23/87/38 39/95/38 38/88/38
f 43/89/39 44/98/39 41/90/39
f 37/92/40 41/118/40 44/93/40
f 39/95/41 43/119/41 42/96/41
f 39/97/42 40/120/42 44/98/42
