# Blender v3.0.0 OBJ File: ''
# www.blender.org
o Cube
v -0.434063 0.351854 -0.314664
v -0.434063 -0.277474 -0.314664
v -0.434063 0.351854 0.314664
v -0.434063 -0.277474 0.314664
v -1.849053 0.178235 -0.141045
v -1.849053 -0.103855 -0.141045
v -1.849053 0.178235 0.141045
v -1.849053 -0.103855 0.141045
v -1.848856 0.583824 -0.546634
v -1.848856 -0.509443 -0.546634
v -1.848856 0.583824 0.546634
v -1.848856 -0.509443 0.546634
v -2.473061 0.037190 0.000000
v 0.407832 0.351854 -0.314664
v 0.407832 -0.277474 -0.314664
v 0.407832 0.351854 0.314664
v 0.407832 -0.277474 0.314664
v 0.128043 0.178235 -1.693690
v 0.128043 -0.103855 -1.693690
v -0.154037 0.178235 -1.696082
v -0.154037 -0.103855 -1.696082
v 0.533615 0.583824 -1.690053
v 0.533615 -0.509443 -1.690053
v -0.559613 0.583824 -1.699324
v -0.559613 -0.509443 -1.699324
v -0.007706 0.037190 -2.318871
v 0.145699 1.837081 -0.141044
v -0.136391 1.837081 -0.141044
v 0.145699 1.837081 0.141045
v -0.136391 1.837081 0.141045
v 0.551288 1.836884 -0.546633
v -0.541980 1.836884 -0.546633
v 0.551288 1.836884 0.546634
v -0.541980 1.836884 0.546634
v 0.004654 2.461089 0.000000
vt 0.759709 0.799688
vt 0.828801 0.580906
vt 0.856279 0.799688
vt 0.100715 0.133379
vt 0.031102 0.351503
vt 0.003968 0.133415
vt 0.550272 0.133392
vt 0.619918 0.351381
vt 0.576553 0.351381
vt 0.100715 0.003968
vt 0.074692 0.596901
vt 0.003968 0.815685
vt 0.031394 0.596901
vt 0.760642 0.109711
vt 0.654954 0.172128
vt 0.717288 0.109742
vt 0.337420 0.828970
vt 0.436000 0.693324
vt 0.472183 0.828970
vt 0.717288 0.066383
vt 0.822977 0.003968
vt 0.760642 0.066352
vt 0.654954 0.004088
vt 0.822977 0.172008
vt 0.674838 0.820393
vt 0.783326 0.948758
vt 0.655247 0.948758
vt 0.141106 0.843463
vt 0.244821 0.711546
vt 0.269504 0.843463
vt 0.003968 0.934485
vt 0.130282 0.823621
vt 0.130282 0.953243
vt 0.550590 0.588657
vt 0.647311 0.685319
vt 0.550590 0.685388
vt 0.337775 0.047444
vt 0.337420 0.090808
vt 0.646977 0.003968
vt 0.647017 0.133392
vt 0.048836 0.359440
vt 0.133169 0.588965
vt 0.003968 0.588965
vt 0.203458 0.641241
vt 0.141106 0.535533
vt 0.203458 0.597874
vt 0.480119 0.804008
vt 0.606202 0.693324
vt 0.606202 0.827744
vt 0.246824 0.597864
vt 0.309175 0.703571
vt 0.246824 0.641231
vt 0.309175 0.535495
vt 0.141106 0.703609
vt 0.581318 0.835680
vt 0.581318 0.996032
vt 0.480119 0.939155
vt 0.929931 0.003968
vt 0.929931 0.172008
vt 0.830914 0.085982
vt 0.961662 0.756866
vt 0.961662 0.924932
vt 0.864215 0.842343
vt 0.337420 0.614422
vt 0.337420 0.657780
vt 0.698998 0.359684
vt 0.784449 0.572969
vt 0.655247 0.572969
vt 0.850998 0.357996
vt 0.792385 0.572969
vt 0.809623 0.357996
vt 0.203456 0.421809
vt 0.309171 0.359492
vt 0.246821 0.421823
vt 0.962255 0.580906
vt 0.962255 0.748929
vt 0.864215 0.667246
vt 0.246821 0.465188
vt 0.141106 0.527506
vt 0.203456 0.465175
vt 0.309171 0.527559
vt 0.141106 0.359440
vt 0.989983 0.357997
vt 0.989983 0.526047
vt 0.892627 0.440185
vt 0.821573 0.180064
vt 0.925206 0.312009
vt 0.797140 0.312009
vt 0.654954 0.280537
vt 0.789204 0.180064
vt 0.789204 0.325956
vt 0.619477 0.359317
vt 0.576123 0.359348
vt 0.329484 0.088133
vt 0.329484 0.044772
vt 0.723400 0.580906
vt 0.655247 0.812456
vt 0.680133 0.580906
vt 0.785514 0.580906
vt 0.074468 0.351487
vt 0.003968 0.004004
vt 0.100564 0.815685
vt 0.647311 0.588588
vt 0.550232 0.003968
vt 0.092127 0.359440
vt 0.742286 0.359317
vt 0.884690 0.572969
vt 0.751772 0.812456
vn -0.1218 0.9926 0.0000
vn -0.1218 0.0000 0.9926
vn -0.1218 -0.9926 0.0000
vn 0.0000 0.0000 1.0000
vn -0.1218 0.0000 -0.9926
vn 1.0000 0.0005 0.0000
vn -0.6588 0.7523 0.0000
vn 1.0000 -0.0005 0.0000
vn 1.0000 0.0000 0.0005
vn 1.0000 0.0000 -0.0005
vn -0.6588 0.0000 0.7523
vn -0.6588 0.0000 -0.7523
vn -0.6588 -0.7523 0.0000
vn 1.0000 0.0000 0.0000
vn 0.0011 -0.9922 -0.1245
vn 0.0000 -1.0000 0.0000
vn 0.0000 0.1161 -0.9932
vn -0.0085 0.0005 1.0000
vn 0.0056 0.7523 -0.6588
vn -0.0085 -0.0005 1.0000
vn -0.0090 0.0000 1.0000
vn -0.0080 0.0000 1.0000
vn -0.7467 0.0000 -0.6652
vn 0.7579 0.0000 -0.6524
vn 0.0056 -0.7523 -0.6588
vn 0.9800 0.0000 -0.1988
vn 0.0000 0.9922 -0.1249
vn -0.9801 0.0000 -0.1987
vn 0.0005 -1.0000 0.0000
vn 0.7523 0.6588 0.0000
vn -0.0005 -1.0000 0.0000
vn 0.0000 -1.0000 0.0005
vn 0.0000 -1.0000 -0.0005
vn 0.0000 0.6588 0.7523
vn 0.0000 0.6588 -0.7523
vn -0.7523 0.6588 0.0000
vn 0.9848 0.1738 0.0000
vn 0.0000 0.1161 0.9932
vn -0.9805 0.1965 0.0000
vn 0.0000 -0.9922 -0.1249
vn 0.0011 0.9922 -0.1245
s off
f 1/1/1 7/2/1 3/3/1
f 3/4/2 8/5/2 4/6/2
f 2/7/3 8/8/3 6/9/3
f 4/6/4 16/10/4 3/4/4
f 5/11/5 2/12/5 6/13/5
f 8/14/6 10/15/6 6/16/6
f 11/17/7 9/18/7 13/19/7
f 5/20/8 11/21/8 7/22/8
f 6/16/9 9/23/9 5/20/9
f 7/22/10 12/24/10 8/14/10
f 12/25/11 11/26/11 13/27/11
f 9/28/12 10/29/12 13/30/12
f 10/31/13 12/32/13 13/33/13
f 14/34/14 17/35/14 15/36/14
f 19/37/15 2/7/15 21/38/15
f 2/7/16 17/39/16 4/40/16
f 28/41/17 14/42/17 1/43/17
f 21/44/18 23/45/18 19/46/18
f 24/47/19 22/48/19 26/49/19
f 18/50/20 24/51/20 20/52/20
f 19/46/21 22/53/21 18/50/21
f 20/52/22 25/54/22 21/44/22
f 25/55/23 24/56/23 26/57/23
f 22/58/24 23/59/24 26/60/24
f 23/61/25 25/62/25 26/63/25
f 18/64/26 15/36/26 19/65/26
f 18/66/27 1/67/27 14/68/27
f 21/69/28 1/70/28 20/71/28
f 30/72/29 32/73/29 28/74/29
f 33/75/30 31/76/30 35/77/30
f 27/78/31 33/79/31 29/80/31
f 27/78/32 32/73/32 31/81/32
f 29/80/33 34/82/33 30/72/33
f 34/83/34 33/84/34 35/85/34
f 31/86/35 32/87/35 35/88/35
f 32/89/36 34/90/36 35/91/36
f 29/92/37 14/34/37 27/93/37
f 30/94/38 16/10/38 29/95/38
f 28/96/39 3/97/39 30/98/39
f 1/1/1 5/99/1 7/2/1
f 3/4/2 7/100/2 8/5/2
f 2/7/3 4/40/3 8/8/3
f 4/6/4 17/101/4 16/10/4
f 5/11/5 1/102/5 2/12/5
f 8/14/6 12/24/6 10/15/6
f 5/20/8 9/23/8 11/21/8
f 6/16/9 10/15/9 9/23/9
f 7/22/10 11/21/10 12/24/10
f 14/34/14 16/103/14 17/35/14
f 19/37/40 15/104/40 2/7/40
f 2/7/16 15/104/16 17/39/16
f 28/41/17 27/105/17 14/42/17
f 21/44/18 25/54/18 23/45/18
f 18/50/20 22/53/20 24/51/20
f 19/46/21 23/45/21 22/53/21
f 20/52/22 24/51/22 25/54/22
f 18/64/26 14/34/26 15/36/26
f 18/66/41 20/106/41 1/67/41
f 21/69/28 2/107/28 1/70/28
f 30/72/29 34/82/29 32/73/29
f 27/78/31 31/81/31 33/79/31
f 27/78/32 28/74/32 32/73/32
f 29/80/33 33/79/33 34/82/33
f 29/92/37 16/103/37 14/34/37
f 30/94/38 3/4/38 16/10/38
f 28/96/39 1/108/39 3/97/39
